<svg xmlns="http://www.w3.org/2000/svg" xmlns:xlink="http://www.w3.org/1999/xlink" width="500" zoomAndPan="magnify" viewBox="0 0 375 374.999991" height="500" preserveAspectRatio="xMidYMid meet" version="1.0"><defs><g/></defs><g fill="#000000" fill-opacity="1"><g transform="translate(185.624992, 244.874984)"><g><path d="M -8.828125 -112.3125 C -4.660156 -112.3125 0.789062 -112.128906 7.53125 -111.765625 C 14.269531 -111.398438 21.710938 -110.785156 29.859375 -109.921875 C 38.015625 -109.066406 46.378906 -107.875 54.953125 -106.34375 C 63.535156 -104.8125 71.835938 -102.847656 79.859375 -100.453125 C 87.890625 -98.066406 95.09375 -95.15625 101.46875 -91.71875 C 107.84375 -88.289062 112.898438 -84.3125 116.640625 -79.78125 C 120.378906 -75.25 122.25 -70.039062 122.25 -64.15625 C 122.25 -62.4375 122.0625 -60.722656 121.6875 -59.015625 C 120.832031 -53.253906 118.320312 -47.859375 114.15625 -42.828125 C 109.988281 -37.804688 104.78125 -33.117188 98.53125 -28.765625 C 92.28125 -24.421875 85.414062 -20.4375 77.9375 -16.8125 C 70.46875 -13.195312 62.929688 -9.945312 55.328125 -7.0625 C 47.734375 -4.1875 40.566406 -1.707031 33.828125 0.375 C 27.085938 2.457031 21.328125 4.234375 16.546875 5.703125 C -8.328125 12.566406 -33.445312 18.296875 -58.8125 22.890625 C -84.1875 27.484375 -109.679688 31.492188 -135.296875 34.921875 C -135.546875 34.921875 -135.671875 34.800781 -135.671875 34.5625 C -135.910156 34.3125 -135.847656 34.1875 -135.484375 34.1875 C -109.992188 30.269531 -84.625 25.796875 -59.375 20.765625 C -34.132812 15.742188 -9.195312 9.554688 15.4375 2.203125 C 19.601562 0.859375 24.84375 -0.851562 31.15625 -2.9375 C 37.46875 -5.019531 44.300781 -7.5 51.65625 -10.375 C 59.007812 -13.257812 66.332031 -16.476562 73.625 -20.03125 C 80.914062 -23.59375 87.6875 -27.457031 93.9375 -31.625 C 100.1875 -35.789062 105.332031 -40.257812 109.375 -45.03125 C 113.414062 -49.8125 115.742188 -54.773438 116.359375 -59.921875 C 116.609375 -60.660156 116.734375 -61.363281 116.734375 -62.03125 C 116.734375 -62.707031 116.734375 -63.476562 116.734375 -64.34375 C 116.734375 -68.019531 115.628906 -71.328125 113.421875 -74.265625 C 111.210938 -77.203125 108.703125 -79.710938 105.890625 -81.796875 C 99.148438 -86.453125 91.148438 -90.25 81.890625 -93.1875 C 72.640625 -96.132812 62.925781 -98.4375 52.75 -100.09375 C 42.582031 -101.75 32.597656 -102.910156 22.796875 -103.578125 C 12.992188 -104.253906 4.171875 -104.59375 -3.671875 -104.59375 C -6.367188 -104.59375 -9.953125 -104.53125 -14.421875 -104.40625 C -18.898438 -104.289062 -23.710938 -104.015625 -28.859375 -103.578125 C -34.003906 -103.148438 -39.117188 -102.535156 -44.203125 -101.734375 C -49.296875 -100.941406 -53.863281 -99.898438 -57.90625 -98.609375 C -61.945312 -97.328125 -65.007812 -95.769531 -67.09375 -93.9375 C -67.46875 -93.6875 -67.773438 -93.378906 -68.015625 -93.015625 C -68.265625 -92.648438 -68.390625 -92.46875 -68.390625 -92.46875 C -68.503906 -91.363281 -68.503906 -90.195312 -68.390625 -88.96875 C -67.523438 -84.4375 -65.128906 -79.257812 -61.203125 -73.4375 C -57.285156 -67.613281 -52.476562 -61.578125 -46.78125 -55.328125 C -41.082031 -49.078125 -35.140625 -42.976562 -28.953125 -37.03125 C -22.765625 -31.09375 -16.941406 -25.671875 -11.484375 -20.765625 C -6.035156 -15.867188 -1.59375 -12.007812 1.84375 -9.1875 L 4.96875 -48.890625 C 5.695312 -56.492188 6.398438 -64.09375 7.078125 -71.6875 C 7.753906 -79.289062 8.457031 -86.890625 9.1875 -94.484375 C 9.1875 -94.734375 9.3125 -94.859375 9.5625 -94.859375 C 9.800781 -94.734375 9.921875 -94.546875 9.921875 -94.296875 C 9.804688 -86.828125 9.65625 -79.257812 9.46875 -71.59375 C 9.28125 -63.9375 9.066406 -56.3125 8.828125 -48.71875 L 7.171875 -3.125 C 7.171875 -2.269531 6.863281 -1.597656 6.25 -1.109375 C 5.632812 -0.617188 4.960938 -0.375 4.234375 -0.375 C 3.742188 -0.375 3.191406 -0.554688 2.578125 -0.921875 L 2.578125 -1.109375 C -2.078125 -4.535156 -7.625 -8.882812 -14.0625 -14.15625 C -20.5 -19.425781 -27.117188 -25.242188 -33.921875 -31.609375 C -40.722656 -37.984375 -47.1875 -44.507812 -53.3125 -51.1875 C -59.4375 -57.875 -64.582031 -64.34375 -68.75 -70.59375 C -72.914062 -76.84375 -75.488281 -82.476562 -76.46875 -87.5 C -76.59375 -88.476562 -76.6875 -89.488281 -76.75 -90.53125 C -76.8125 -91.570312 -76.78125 -92.644531 -76.65625 -93.75 C -76.289062 -95.34375 -75.738281 -96.628906 -75 -97.609375 C -74.269531 -98.585938 -73.535156 -99.445312 -72.796875 -100.1875 C -69.609375 -103.007812 -65.285156 -105.210938 -59.828125 -106.796875 C -54.378906 -108.390625 -48.46875 -109.582031 -42.09375 -110.375 C -35.71875 -111.175781 -29.585938 -111.695312 -23.703125 -111.9375 C -17.828125 -112.1875 -12.867188 -112.3125 -8.828125 -112.3125 Z M -8.828125 -112.3125 "/></g></g></g></svg>